PathFileType	4	(X/Y/Z)	66_2_16_p0_0-153.trc
DataRate	CameraRate	NumFrames	NumMarkers	Units	OrigDataRate	OrigDataStartFrame	OrigNumFrames
40.0	40.0	7	27	m	40.0	38	154
Frame#	Time	RHip			RKnee			RAnkle			RBigToe			RSmallToe			RHeel			LHip			LKnee			LAnkle			LBigToe			LSmallToe			LHeel			Neck			Head			Nose			RShoulder			RElbow			RWrist			RThumb			RIndex			RPinky			LShoulder			LElbow			LWrist			LThumb			LIndex			LPinky			
		X1	Y1	Z1	X2	Y2	Z2	X3	Y3	Z3	X4	Y4	Z4	X5	Y5	Z5	X6	Y6	Z6	X7	Y7	Z7	X8	Y8	Z8	X9	Y9	Z9	X10	Y10	Z10	X11	Y11	Z11	X12	Y12	Z12	X13	Y13	Z13	X14	Y14	Z14	X15	Y15	Z15	X16	Y16	Z16	X17	Y17	Z17	X18	Y18	Z18	X19	Y19	Z19	X20	Y20	Z20	X21	Y21	Z21	X22	Y22	Z22	X23	Y23	Z23	X24	Y24	Z24	X25	Y25	Z25	X26	Y26	Z26	X27	Y27	Z27	
38	0.95	0.530895610038218	0.9298133980160456	0.8160470678148808	0.501704602687703	0.9242824713503616	1.1993057777973857	0.5023571485500983	1.0877499095381473	1.6135961602700284	0.47829325168625464	0.8681142839591138	1.6303924394336171	0.5476024310890506	0.9409282187829632	1.6398120170408954	0.48371531105245535	1.1949206396153513	1.6739452911458061	0.322685902692517	0.9472406227634941	0.8161853320908742	0.3179175900257074	1.0568040180983689	1.2279040501288419	0.32648275745774596	1.1547847073680038	1.5892576827085465	0.3209262370165679	0.9285024662835795	1.6296336306285295	0.2714122961104107	1.0049507866602632	1.635023115885976	0.34921744986881736	1.2350640348400932	1.651344974495919	0.44595821260917506	0.7010259464485	0.34431073832458914	0.41684388156277935	0.5083106907861797	0.1296749279008994	0.41169112744416303	0.47710694498518946	0.2883850398324956	0.5802586618787016	0.7319793335386517	0.3903611220702825	0.6773984309041642	0.831313709717625	0.5759821626027536	0.5630382759366411	0.6244178371889848	0.6708461007844286	0.4619154768061605	0.5631031605230925	0.6907609700587335	0.4756269684383455	0.5101200337480016	0.7396519892216964	0.4997597524799918	0.5598906781348658	0.7680257612662921	0.2986791839201186	0.7815728817852974	0.3735309368323608	0.21896945874983154	0.8977821539431072	0.5509697579911754	0.24125943805600877	0.6970724164163683	0.6878608060541602	0.2894799145741242	0.6014708994830161	0.7169010557383023	0.26400661959390315	0.5879066452307249	0.7456482106746424	0.25575623358255645	0.6116653074906078	0.7827694972850385
39	0.975	0.5358631083829325	0.9484548976302326	0.8224331742198011	0.5016264348645653	0.925322048982326	1.216589381044962	0.49378179245573744	1.0905071296181483	1.6240568145686913	0.47845755434746456	0.8823419146272049	1.6481695445863473	0.5401444604194352	0.9380942964177179	1.641281040117582	0.48282843780964946	1.196717382220906	1.6746349808757355	0.3289500458430213	0.9604782161721593	0.8251742770705742	0.3181966947306496	1.0561148297555627	1.2322674284322508	0.32193560345817096	1.1531699477813309	1.588423280402757	0.3255759971508059	0.9140805718165698	1.6245585303595413	0.2719253726185384	1.0053116077823856	1.6353254950629847	0.35234004271313196	1.2572768185619698	1.6551146993017447	0.44260090038988414	0.6908655532723011	0.3593841328844398	0.4171041411474355	0.48676614298690096	0.13902454190673608	0.41489074690273997	0.4690903716413844	0.31257720390520827	0.5846679328509915	0.7317477069191898	0.39860474460141965	0.6773812284737699	0.8450265699814669	0.5812466614364007	0.5572501501994103	0.5957190647111844	0.6352797131378672	0.4480837426514828	0.4731180950168532	0.6156885248407553	0.4504350927259501	0.4238952953471398	0.6466288584447174	0.4920353934075541	0.49546627686400135	0.6837306495128082	0.29407277976585483	0.7694537409564759	0.4004707905457702	0.21374946537613895	0.8896607723222815	0.6020115210386094	0.23019251382710518	0.7150869640359427	0.7717976839756385	0.24868021073109853	0.6422859676793596	0.8438347143935898	0.23473578503958376	0.6624420078654167	0.8711909785067421	0.22586560382015425	0.7294258990439708	0.8819292207383744
40	1.0	0.5316298298580597	0.9490301875544327	0.819189250720226	0.49909416007802326	0.9079042683564097	1.2044243081468657	0.4978485104815526	1.1058132258823663	1.629385834425197	0.47765463672173347	0.8807750478533561	1.6476258282114007	0.5386190712854948	0.9376847980899936	1.6463062476023693	0.48704898979571853	1.2109022483873757	1.6794010155050878	0.3259331795771389	0.9459363751846114	0.8166504374292414	0.3118342512870699	1.0529333595491075	1.2313494095110167	0.3219528499193459	1.1531131844834308	1.5883602162759005	0.3259411408196199	0.9136908561108155	1.624246143476807	0.27240059600182176	1.004256784992181	1.634615914009065	0.34874374544574555	1.2424400555473136	1.6499470301737227	0.4415922475947179	0.6954519791410064	0.37368776714076557	0.4131537270161396	0.48631639511100866	0.1422703195713618	0.4110368333777441	0.45807983799145907	0.31960956455303974	0.5803552748929997	0.7319310832209585	0.40207962827343474	0.680262962093875	0.8298837402980324	0.5739111577754941	0.5583547937597277	0.5801874686300164	0.6071436858996752	0.46071323420368687	0.4694768713351494	0.5846733012170107	0.45366758896587733	0.4257727073060513	0.5926634174326509	0.4868927567366059	0.4707912375194172	0.6607453094177418	0.29402902667898906	0.7696323920889794	0.4008065449990524	0.21416569158445367	0.8914860934403397	0.6067770699786332	0.23278574708023883	0.7313869896400726	0.7930391557500512	0.2391116763396162	0.7024568867959686	0.8869646746721414	0.22656085142848434	0.6972775005508057	0.912679010837928	0.21750078690606703	0.7283890962673474	0.9095821563714948
41	1.025	0.5269171607018845	0.9358474944927523	0.8180033477157904	0.4990345384733103	0.9068149466774095	1.2084328649745202	0.4931193690163768	1.105885682078547	1.629480230169655	0.47882924109778174	0.8824931006135394	1.648302643172066	0.5429487838341791	0.9392373726480148	1.6470882978842505	0.4867914869129135	1.2118639511552212	1.6794891835434707	0.3217800845799489	0.9460119359089211	0.8166427862828789	0.31345266733570576	1.0544103516520376	1.2316609635347648	0.3213685908551257	1.152980799341801	1.5883148697167788	0.3259256024054359	0.9136421398019702	1.6240933103128434	0.27243381333470446	1.0043073025680873	1.6345696758886146	0.3366451329749873	1.2541463092220595	1.6501136479664211	0.4407421570899221	0.6950129182844662	0.3772888632951727	0.41984557081931195	0.4848963210165419	0.14258174037289606	0.41491587183793416	0.4698205726279907	0.322867481815875	0.5837963183608899	0.7200252774182392	0.4063909670256198	0.6756776601517852	0.8208831222513983	0.5905630166728766	0.5658231199322306	0.5889132896338766	0.6034281996291937	0.4813207849077525	0.5011168168338457	0.5692467389033979	0.4705628850688613	0.4590028211986893	0.5813707492369493	0.4900081414896186	0.5037835680721582	0.6505186881432482	0.2935659539410875	0.7691646033152473	0.40814893530116386	0.21396848268786006	0.8916412731710662	0.6067338049376136	0.23300847673260586	0.7314124857902821	0.793148315593944	0.24063407668933906	0.6754379114783514	0.8810108680233611	0.22545114117371026	0.6845489890657004	0.9081169452634708	0.21996729078448776	0.7416434943159655	0.9107173886300951
42	1.05	0.5311830240391279	0.9498234497551408	0.8196922323381678	0.49238170209570925	0.9289215061729511	1.2219143529109056	0.4931528239384494	1.1052276937298509	1.6292044101275516	0.4795861573062367	0.8820255624886744	1.645251989048111	0.5438578504349258	0.936600032046154	1.646832549820354	0.48739102129753015	1.209633119627732	1.6792357561255271	0.321210980424058	0.9467986263828324	0.8202167547701853	0.31268853336293806	1.0512947292696495	1.2267885166916708	0.31224715686611654	1.1681553775885598	1.5927888413133204	0.3188835039891935	0.9117032560615556	1.6229220237922135	0.2723302228578215	1.004011795941778	1.6341694657614727	0.3423894325104181	1.2673592879576923	1.6576523631479818	0.4405119346178722	0.6962108842655139	0.3881878574589758	0.41969081758977067	0.46275230429350167	0.1486049939120989	0.4183015948962537	0.4585662833180352	0.3233620156073602	0.5833932059703173	0.7213656396576016	0.4096797818504064	0.6695215868486516	0.8403365695226477	0.5884355300713107	0.5628808985884406	0.6017272757176598	0.6044382724397124	0.47992301606196364	0.48888226118401334	0.5747651946997806	0.48040643331530714	0.46899805168337705	0.5845698488521333	0.4914334236006554	0.4933561093507914	0.6545938752036411	0.29379175184914674	0.7689883704686066	0.40847078103778545	0.21417358127190395	0.890171960490479	0.6067405330271335	0.23838183494172754	0.7148935771734649	0.7882738457619828	0.25971279583242635	0.623141596913091	0.8653257149202677	0.2520791746488226	0.6097615247537246	0.8908620014276308	0.235510694729402	0.698309076168162	0.9063214014721143
43	1.075	0.5267326188119521	0.9474072172431172	0.8269846259014804	0.49322865711966696	0.9270015190425622	1.2173244012827689	0.4979451173584643	1.1065077479288428	1.6295591362751805	0.4806583996970442	0.882417163797255	1.6452602828647436	0.5407625848774748	0.9370300180982787	1.6467635155441285	0.4831306008631827	1.1924786986326434	1.6734643902502053	0.32138187333615637	0.9459323753812813	0.8238259394418171	0.3136214390863145	1.0530380974768407	1.2314074430708328	0.3211059594316398	1.1514028639953644	1.5871804422575495	0.31833635846699826	0.9097831349633816	1.621917909489906	0.2720762264223213	1.0032184192056635	1.6337716954134354	0.33761831412206567	1.246513660828095	1.6500903853587265	0.4384884072772121	0.6807894572882756	0.3922250210689924	0.41946713726226936	0.4526298364739313	0.14981709681330965	0.4147016336754751	0.4475529968014127	0.32375551798162033	0.5762194100272071	0.7228163332960795	0.4101219838902669	0.6748598812088411	0.8599078871947509	0.5823658024540821	0.5579511051194705	0.6499303499575722	0.6516203966377138	0.487104083974123	0.520978974410342	0.6190220338727518	0.48972213412712307	0.47973956022473296	0.6501503948646901	0.5000177819798751	0.5075767142300731	0.6815007091728531	0.28984771863658737	0.7663629098671764	0.40088268628393514	0.2129893798634893	0.8889620530763379	0.5977702049862644	0.2463455310985884	0.6987656524799611	0.7658622589050111	0.26876043252476184	0.6137610901735465	0.8200652827354858	0.2580128980676344	0.6235620527993104	0.8592173794256522	0.2569869929723235	0.6512195839296944	0.8685463469622495
44	1.1	0.5269982865404089	0.9470512295619609	0.8271814684556142	0.49767721491218614	0.9410537048430208	1.2206194325280815	0.4978418345762987	1.1067945233731413	1.6294927129677583	0.4747352814202343	0.8518215064333621	1.6287785426144814	0.5404158396367492	0.9402646860652171	1.646915539419213	0.483349895147093	1.193797326937008	1.6738976498397549	0.3175888237772099	0.9456349227179242	0.8241239555667229	0.3179510774711446	1.0369709606946023	1.227380941393001	0.32108240396280924	1.1510668219985332	1.587071904982279	0.3179643419017835	0.9117953334766143	1.6230391497196703	0.2716331381268535	1.0040260802483265	1.6343762740993704	0.34026196805483344	1.2266543526446234	1.6437948768421144	0.437325265652561	0.6799170983332851	0.38807505301422623	0.4191790890140207	0.4315515546315974	0.15214870008142267	0.4181297066597699	0.45801609722646325	0.3234640578308	0.5759051592604124	0.7236127762674183	0.40987834445364596	0.6695304697328939	0.8630455792880443	0.5850559614581156	0.5584128925200046	0.650096209727428	0.659862187169376	0.4814152435029222	0.5691488020394798	0.6752079137202253	0.49524546582474704	0.4975351145200585	0.680119549735175	0.509394880712057	0.5402401720531694	0.732403078407172	0.2899291732952977	0.7676298938725278	0.3933449286608287	0.2196186111604227	0.9039699945726133	0.5870102250657675	0.2635762096384648	0.6871156179270203	0.7215705941526578	0.2943410983339838	0.6021126960287928	0.774341736934857	0.26882961013641954	0.5842526047668587	0.8117891699443527	0.25844529922430626	0.6291283702082958	0.8274301956463063
